<svg width="253" height="20" viewBox="0 0 253 20" fill="none" xmlns="http://www.w3.org/2000/svg">
<path d="M229.721 0.2068C233.064 0.2068 235.701 2.45002 235.775 5.68645C235.743 5.95939 235.495 6.15574 235.218 6.12734H232.282C232.011 6.14151 231.771 5.95199 231.726 5.68645C231.697 5.20443 231.471 4.7548 231.1 4.44215C230.728 4.1295 230.243 3.98108 229.758 4.03141C229.214 3.99049 228.679 4.18701 228.293 4.56942C227.908 4.95182 227.71 5.48196 227.752 6.02075C227.752 6.54401 227.964 7.04534 228.342 7.41149C228.719 7.77763 229.23 7.9777 229.758 7.96649C230.745 7.98013 231.718 8.1928 232.618 8.59149C234.636 9.49619 235.909 11.5107 235.848 13.7029C235.848 17.3851 232.876 19.3657 229.756 19.3657C226.303 19.2552 223.628 17.3066 223.591 13.7397H223.593C223.593 13.482 223.816 13.2989 224.15 13.2989H227.121C227.381 13.2989 227.678 13.4461 227.678 13.7397C227.692 14.2397 227.917 14.7109 228.298 15.0393C228.679 15.3677 229.181 15.5233 229.683 15.4684C230.189 15.5138 230.692 15.3499 231.072 15.0155C231.452 14.6811 231.675 14.206 231.688 13.7029C231.603 12.6432 230.753 11.8017 229.683 11.7175C228.685 11.7052 227.699 11.4926 226.786 11.0925C224.785 10.1956 223.525 8.19474 223.593 6.02075C223.589 4.43326 224.243 2.91365 225.4 1.81536C226.558 0.717068 228.119 0.135818 229.721 0.2068ZM209.033 0.574048C209.317 0.561859 209.561 0.771499 209.59 1.05176V12.9297C209.835 14.4336 211.172 15.5216 212.71 15.4675C214.27 15.4675 215.793 14.6583 215.793 13.0033V1.05176C215.82 0.771257 216.065 0.561364 216.349 0.574048H219.358C219.637 0.574937 219.874 0.778041 219.915 1.05176V12.9704C219.915 16.9791 216.795 19.3318 212.71 19.3318C208.735 19.3318 205.505 16.8677 205.505 12.9704V1.05176C205.532 0.771257 205.777 0.561364 206.062 0.574048H209.033ZM67.486 0.0963353C69.981 0.102136 72.3769 1.06406 74.1714 2.78044C74.2906 3.00218 74.2763 3.27099 74.1342 3.47909L72.0545 5.5382C71.8292 5.6854 71.537 5.6854 71.3117 5.5382C70.2978 4.52637 68.9253 3.94585 67.486 3.91998C64.18 3.91998 62.1747 6.49459 62.1747 9.76688C62.1747 13.2601 64.5519 15.3928 67.486 15.3928C68.9197 15.4114 70.2999 14.8542 71.3117 13.8483V13.8502C71.537 13.703 71.8292 13.703 72.0545 13.8502L74.1342 15.9093C74.32 16.12 74.32 16.4341 74.1342 16.6448C72.3541 18.3557 69.9668 19.3063 67.486 19.2921C64.9274 19.361 62.4548 18.3747 60.659 16.5689C58.8633 14.763 57.9058 12.2998 58.0153 9.76785C58.0153 4.1787 61.9154 0.0963353 67.486 0.0963353ZM10.9612 0.574048C11.0996 0.561752 11.2371 0.605696 11.3422 0.695788C11.4472 0.78588 11.5107 0.914377 11.5181 1.05176V3.73587L11.5484 3.73684C11.5484 3.99459 11.3253 4.17773 10.9916 4.17773H7.8001V18.6302C7.8001 18.8512 7.61415 19.0711 7.24323 19.0711H4.27097C3.99517 19.0985 3.74783 18.9026 3.7141 18.6302V4.17773H0.55687C0.22314 4.17773 0 3.99362 0 3.73684V1.05176C0.0278144 0.771257 0.272487 0.561364 0.55687 0.574048H10.9612ZM18.1614 0.867653V7.67095H24.4015V0.867653C24.4295 0.633347 24.6162 0.455507 24.8431 0.427719L27.9306 0.426762C28.2023 0.412595 28.4417 0.60211 28.4875 0.867653V18.5934C28.4417 18.859 28.2023 19.0485 27.9306 19.0343H24.9221C24.6506 19.048 24.4115 18.8587 24.3653 18.5934V11.4956H18.1624V18.5925C18.1166 18.858 17.8772 19.0475 17.6055 19.0333H14.6333C14.3617 19.0471 14.1226 18.8578 14.0764 18.5925V0.867653C14.1045 0.633705 14.2907 0.456026 14.5172 0.427919L17.6045 0.426762C17.8803 0.399438 18.1277 0.595258 18.1614 0.867653ZM173.229 0.867653V7.67095H179.469V0.867653C179.497 0.633705 179.683 0.456026 179.91 0.427919L183.034 0.426762C183.306 0.412595 183.545 0.60211 183.591 0.867653V18.5934C183.545 18.859 183.306 19.0485 183.034 19.0343H180.026C179.754 19.048 179.515 18.8587 179.469 18.5934V11.4956H173.229V18.5925C173.183 18.858 172.944 19.0475 172.672 19.0333H169.701C169.429 19.0471 169.19 18.8578 169.144 18.5925V0.867653C169.172 0.633705 169.358 0.456026 169.584 0.427919L172.672 0.426762C172.948 0.399438 173.195 0.595258 173.229 0.867653ZM90.2169 15.137C90.5128 15.1109 90.7761 15.3226 90.8109 15.6147L90.8119 18.5905C90.7666 18.828 90.5708 19.0025 90.3372 19.0302L78.2946 19.0314C78.0188 19.0587 77.7714 18.8629 77.7377 18.5905V15.6147C77.7451 15.4774 77.8086 15.3489 77.9137 15.2588C77.9924 15.1912 78.0895 15.1496 78.1914 15.1382L90.2169 15.137ZM200.49 15.137C200.786 15.1109 201.049 15.3226 201.084 15.6147L201.085 18.5905C201.04 18.828 200.844 19.0025 200.61 19.0302L188.568 19.0314C188.292 19.0587 188.044 18.8629 188.011 18.5905V15.6147C188.018 15.4774 188.082 15.3489 188.187 15.2588C188.265 15.1912 188.362 15.1496 188.464 15.1382L200.49 15.137ZM107.6 0.574048C107.896 0.547897 108.159 0.759601 108.194 1.05176V3.95874C108.16 4.25116 107.896 4.46313 107.6 4.43645L99.2805 4.43548V7.89188H106.115C106.486 7.89188 106.671 8.11281 106.671 8.33277V11.2397C106.671 11.4607 106.486 11.6806 106.115 11.6806H99.2805V18.5605C99.2805 18.7814 99.0945 19.0014 98.7236 19.0014H95.7523C95.4808 19.0151 95.2416 18.8258 95.1954 18.5605V1.05176C95.2029 0.914377 95.2664 0.78588 95.3714 0.695788C95.4764 0.605696 95.6139 0.561752 95.7523 0.574048H107.6ZM123.57 0.574048C123.866 0.547897 124.13 0.759601 124.164 1.05176V3.95874C124.13 4.25116 123.866 4.46313 123.57 4.43645L115.251 4.43548V7.89188H122.085C122.456 7.89188 122.642 8.11281 122.642 8.33277V11.2397C122.642 11.4607 122.456 11.6806 122.085 11.6806H115.251V18.5605C115.251 18.7814 115.065 19.0014 114.694 19.0014H111.722C111.451 19.0151 111.212 18.8258 111.166 18.5605V1.05176C111.173 0.914377 111.237 0.78588 111.342 0.695788C111.447 0.605696 111.584 0.561752 111.722 0.574048H123.57ZM45.2376 0.426762C45.6095 0.426762 45.8317 0.647692 45.8317 0.867653V3.73587C45.7788 4.01295 45.5211 4.20424 45.2376 4.17676H36.9188V7.888H43.753C44.1249 7.888 44.3098 8.10893 44.3098 8.32889V11.1603C44.3098 11.3812 44.1239 11.6012 43.753 11.6012H36.9188V15.2417H45.2014C45.5733 15.2417 45.7955 15.4626 45.7955 15.6826V18.5508C45.7426 18.8279 45.4849 19.0192 45.2014 18.9917H33.3897C33.1181 19.0054 32.879 18.8161 32.8328 18.5508V0.867653C32.8328 0.609901 33.056 0.426762 33.3897 0.426762H45.2376ZM139.503 0.426762C139.875 0.426762 140.097 0.647692 140.097 0.867653V3.73587C140.045 4.01295 139.787 4.20424 139.503 4.17676H131.221L131.222 4.21455V7.888H138.06C138.432 7.888 138.617 8.10893 138.617 8.32889V11.1603C138.617 11.3812 138.431 11.6012 138.06 11.6012H131.226V15.2417H139.508C139.88 15.2417 140.102 15.4626 140.102 15.6826V18.5508C140.049 18.8279 139.792 19.0192 139.508 18.9917H127.655C127.384 19.0054 127.145 18.8161 127.099 18.5508V0.867653C127.099 0.609901 127.322 0.426762 127.655 0.426762H139.503ZM155.698 0.426762C156.068 0.426762 156.292 0.647692 156.292 0.867653V3.73587C156.239 4.01295 155.981 4.20424 155.698 4.17676H147.415L147.416 7.888H154.254C154.625 7.888 154.811 8.10893 154.811 8.32889V11.1603C154.811 11.3812 154.625 11.6012 154.254 11.6012H147.42V15.2417H155.702C156.073 15.2417 156.297 15.4626 156.297 15.6826V18.5508C156.244 18.8279 155.986 19.0192 155.702 18.9917H143.85C143.578 19.0054 143.339 18.8161 143.293 18.5508V0.867653C143.293 0.609901 143.516 0.426762 143.85 0.426762H155.698ZM251.597 0.426762C251.969 0.426762 252.191 0.647692 252.191 0.867653V3.73587C252.138 4.01295 251.88 4.20424 251.597 4.17676H243.314V7.888H250.153C250.525 7.888 250.71 8.10893 250.71 8.32889V11.1603C250.71 11.3812 250.524 11.6012 250.153 11.6012H243.319V15.2417H251.602C251.973 15.2417 252.196 15.4626 252.196 15.6826V18.5508C252.143 18.8279 251.885 19.0192 251.602 18.9917H239.749C239.479 19.0058 239.241 18.8196 239.192 18.5566V0.867653C239.192 0.609901 239.415 0.426762 239.749 0.426762H251.597ZM84.2934 0C88.268 0 91.5122 3.1483 91.5919 7.08277C91.4895 11.0009 88.252 14.1243 84.2934 14.1243C80.3348 14.1243 77.0974 11.0009 76.9949 7.08277C77.0746 3.1483 80.3188 0 84.2934 0ZM194.604 0C198.578 0 201.822 3.1483 201.902 7.08277C201.8 11.0009 198.562 14.1243 194.604 14.1243C190.645 14.1243 187.408 11.0009 187.305 7.08277C187.385 3.1483 190.629 0 194.604 0ZM84.3301 3.97521C82.5967 3.97521 81.1915 5.36651 81.1915 7.08277C81.1915 8.19299 81.7897 9.21888 82.7608 9.77399C83.7319 10.3291 84.9283 10.3291 85.8994 9.77399C86.8705 9.21888 87.4687 8.19299 87.4687 7.08277C87.4687 5.36651 86.0635 3.97521 84.3301 3.97521ZM194.603 3.97521C192.87 3.97521 191.464 5.36651 191.464 7.08277C191.464 8.79903 192.87 10.1903 194.603 10.1903C196.337 10.1903 197.742 8.79903 197.742 7.08277C197.742 5.36651 196.337 3.97521 194.603 3.97521Z" fill="white"/>
</svg>
